<svg width="21" height="21" viewBox="0 0 21 21" fill="none" xmlns="http://www.w3.org/2000/svg">
<path d="M20.9995 11.2988C20.9604 11.6361 20.9276 11.9745 20.8824 12.3107C20.6826 13.806 20.167 15.2394 19.3711 16.5124C18.3822 18.1059 17.0763 19.3621 15.4423 20.2465C14.9384 20.5092 14.4197 20.7413 13.8888 20.9415C13.4311 21.1225 13.109 20.8709 13.1085 20.3595C13.1085 19.4395 13.1178 18.5191 13.1193 17.5986C13.1193 17.0856 13.0679 16.5798 12.8332 16.116C12.7304 15.9068 12.5876 15.7211 12.4582 15.5166C12.825 15.4497 13.203 15.3979 13.5729 15.3106C14.6152 15.0648 15.545 14.614 16.2216 13.7275C16.7132 13.0837 16.97 12.3395 17.0948 11.5467C17.2071 10.8934 17.2256 10.2269 17.1498 9.5682C17.0573 8.80283 16.7463 8.08188 16.2555 7.49457C16.1486 7.36592 16.1383 7.26184 16.1841 7.10547C16.4368 6.2436 16.3423 5.39636 16.0341 4.56848C16.0125 4.50938 15.8799 4.44976 15.8075 4.46388C15.4726 4.51618 15.1197 4.54494 14.8135 4.67883C14.2895 4.90789 13.8 5.21175 13.2863 5.47324C13.1824 5.52763 13.0639 5.546 12.9488 5.52554C11.3364 5.11839 9.65069 5.11839 8.03829 5.52554C7.92991 5.54779 7.81728 5.5292 7.72134 5.47324C7.11672 5.09094 6.50541 4.72171 5.80678 4.54651C5.58658 4.50034 5.3634 4.47045 5.13896 4.45708C5.03622 4.44662 4.97252 4.50101 4.93348 4.61398C4.64787 5.46644 4.56362 6.32361 4.83485 7.19804C4.84399 7.23524 4.84518 7.274 4.83836 7.31171C4.83154 7.34942 4.81685 7.3852 4.7953 7.41665C3.90403 8.46784 3.70214 9.70522 3.83879 11.0383C3.9066 11.7004 4.03862 12.3432 4.31602 12.9514C4.77115 13.9503 5.52424 14.6176 6.51466 15.0271C7.1013 15.2698 7.71466 15.3984 8.33881 15.4837C8.40559 15.4926 8.47134 15.5077 8.52014 15.5171C8.37682 15.7718 8.22734 16.0166 8.09994 16.2729C8.03394 16.4035 7.99165 16.5453 7.97511 16.6912C7.95353 16.9125 7.84155 17.0129 7.64377 17.0746C6.9888 17.2796 6.34462 17.3403 5.71893 16.981C5.38662 16.7826 5.11051 16.4999 4.91756 16.1604C4.68588 15.7739 4.40386 15.4356 4.01396 15.2112C3.7119 15.0381 3.39135 14.9147 3.03793 14.9868C2.94752 15.0051 2.83245 15.0663 2.79854 15.1406C2.7744 15.1929 2.85556 15.3121 2.91104 15.3843C2.9688 15.453 3.0378 15.5111 3.11498 15.5558C3.72012 15.9355 4.07406 16.5134 4.33605 17.163C4.75266 18.1948 5.5489 18.6723 6.60096 18.7319C7.01192 18.756 7.43007 18.6927 7.86466 18.6676C7.87278 18.693 7.87761 18.7194 7.87905 18.746C7.88624 19.2826 7.89703 19.8197 7.896 20.3563C7.896 20.8793 7.56261 21.1063 7.07408 20.9274C4.4542 19.9704 2.48724 18.2367 1.1922 15.7326C0.273329 13.981 -0.128257 11.9962 0.0358576 10.0174C0.323017 6.40886 1.97302 3.602 4.95198 1.6497C7.06432 0.264843 9.41039 -0.268078 11.8916 0.126775C16.1995 0.812407 19.052 3.3311 20.5033 7.50922C20.7729 8.28585 20.9091 9.09804 20.963 9.92226C20.9713 9.99077 20.9837 10.0587 21 10.1257L20.9995 11.2988Z" fill="white"/>
</svg>
