<svg width="20" height="20" viewBox="0 0 20 20" fill="none" xmlns="http://www.w3.org/2000/svg">
<path d="M19.9995 10.7607C19.9623 11.082 19.931 11.4042 19.888 11.7245C19.6977 13.1485 19.2067 14.5137 18.4486 15.7261C17.5068 17.2437 16.2632 18.4401 14.7069 19.2824C14.2271 19.5326 13.733 19.7536 13.2275 19.9443C12.7916 20.1167 12.4848 19.8771 12.4843 19.39C12.4843 18.5138 12.4931 17.6372 12.4946 16.7606C12.4946 16.272 12.4457 15.7903 12.2221 15.3485C12.1242 15.1493 11.9882 14.9725 11.8649 14.7777C12.2142 14.714 12.5743 14.6647 12.9266 14.5815C13.9192 14.3474 14.8048 13.918 15.4491 13.0738C15.9173 12.4607 16.1619 11.7519 16.2808 10.9968C16.3877 10.3746 16.4054 9.73992 16.3332 9.11257C16.245 8.38365 15.9489 7.69703 15.4814 7.13769C15.3796 7.01516 15.3698 6.91604 15.4134 6.76712C15.6541 5.94628 15.5641 5.13939 15.2705 4.35093C15.25 4.29465 15.1238 4.23787 15.0548 4.25131C14.7358 4.30112 14.3997 4.32852 14.1081 4.45602C13.6091 4.67418 13.1428 4.96357 12.6536 5.21261C12.5546 5.26441 12.4418 5.2819 12.3322 5.26242C10.7965 4.87466 9.19113 4.87466 7.65552 5.26242C7.55229 5.28361 7.44502 5.26591 7.35366 5.21261C6.77782 4.84851 6.19563 4.49687 5.53026 4.33001C5.32056 4.28604 5.108 4.25757 4.89425 4.24484C4.7964 4.23488 4.73574 4.28668 4.69856 4.39426C4.42654 5.20613 4.3463 6.02249 4.60462 6.85527C4.61332 6.8907 4.61446 6.92762 4.60796 6.96353C4.60146 6.99945 4.58748 7.03352 4.56695 7.06347C3.71812 8.06461 3.52585 9.24307 3.65599 10.5127C3.72057 11.1432 3.8463 11.7554 4.11049 12.3347C4.54396 13.286 5.26118 13.9215 6.20443 14.3115C6.76315 14.5426 7.3473 14.6652 7.94172 14.7464C8.00532 14.7548 8.06795 14.7693 8.11442 14.7782C7.97793 15.0208 7.83556 15.2539 7.71423 15.498C7.65137 15.6224 7.6111 15.7574 7.59534 15.8964C7.57479 16.1071 7.46814 16.2027 7.27978 16.2615C6.656 16.4568 6.0425 16.5145 5.4466 16.1724C5.13011 15.9834 4.86715 15.7142 4.68339 15.3909C4.46274 15.0228 4.19415 14.7005 3.82282 14.4869C3.53515 14.322 3.22986 14.2044 2.89326 14.2732C2.80716 14.2906 2.69757 14.3489 2.66528 14.4196C2.64228 14.4694 2.71958 14.583 2.77242 14.6517C2.82743 14.7172 2.89314 14.7724 2.96665 14.8151C3.54297 15.1767 3.88006 15.7271 4.12957 16.3457C4.52634 17.3284 5.28466 17.7831 6.28663 17.8399C6.67802 17.8628 7.07626 17.8026 7.49016 17.7787C7.49788 17.8029 7.50249 17.828 7.50385 17.8534C7.5107 18.3644 7.52098 18.8759 7.52 19.387C7.52 19.885 7.20248 20.1012 6.73722 19.9309C4.2421 19.0194 2.3688 17.3682 1.13543 14.9834C0.260313 13.3152 -0.12215 11.4249 0.0341501 9.54043C0.307635 6.10367 1.87907 3.43048 4.71617 1.57115C6.72792 0.252231 8.96228 -0.255312 11.3253 0.120738C15.4281 0.773721 18.1448 3.17247 19.5269 7.15163C19.7838 7.89128 19.9134 8.6648 19.9648 9.44977C19.9727 9.51502 19.9844 9.57972 20 9.64353L19.9995 10.7607Z" fill="white"/>
</svg>
